<?xml version="1.0" standalone="no"?><svg xmlns="http://www.w3.org/2000/svg" viewBox="0 0 1440 320"><path fill="#2c2c2c" fill-opacity="1" d="M0,128L40,144C80,160,160,192,240,197.3C320,203,400,181,480,181.3C560,181,640,203,720,192C800,181,880,139,960,128C1040,117,1120,139,1200,138.7C1280,139,1360,117,1400,106.7L1440,96L1440,320L1400,320C1360,320,1280,320,1200,320C1120,320,1040,320,960,320C880,320,800,320,720,320C640,320,560,320,480,320C400,320,320,320,240,320C160,320,80,320,40,320L0,320Z"></path></svg>